<svg width="24" height="24" viewBox="0 0 200 200" fill="#111" xmlns="http://www.w3.org/2000/svg">
										<path d="M143.909 26.8748L137.172 24.0192C133.75 22.5781 129.73 24.126 128.263 27.4887L118.24 50.3603L37.4304 16.1729C36.2896 7.07232 28.358 0 18.7967 0C8.44764 0 0 8.27328 0 18.4414C0 28.6096 8.42048 36.9095 18.7967 36.9095C22.1377 36.9095 25.2886 36.0555 28.0049 34.5343L115.578 71.6039L122.939 74.7264C125.873 75.9808 129.268 74.9933 131.088 72.538C131.387 72.1377 131.631 71.7107 131.821 71.257L134.836 64.3982L134.891 64.2914L147.467 35.6018C148.934 32.2658 147.331 28.3427 143.909 26.8748ZM18.7967 28.4494C18.1448 28.4494 17.52 28.396 16.8953 28.2626C12.1961 27.3819 8.63778 23.3253 8.63778 18.4414C8.63778 12.9437 13.2011 8.4601 18.7967 8.4601C21.8389 8.4601 24.5552 9.76781 26.4023 11.8495C27.9777 13.6109 28.9556 15.9327 28.9556 18.4681C28.9556 23.9658 24.3922 28.4494 18.7967 28.4494Z" fill="#111" />
										<path d="M134.809 64.4248C134.782 64.5049 134.755 64.5582 134.728 64.6383L131.821 71.2569C131.821 71.2569 131.821 71.2836 131.794 71.2836L134.809 64.4248Z" fill="#111" />
										<path d="M112.264 41.233L69.5098 23.1385C67.8528 22.4446 67.0923 20.5497 67.7985 18.9218L73.5027 5.92472C74.2089 4.29675 76.1375 3.54948 77.7944 4.24337L120.549 22.3378C122.206 23.0317 122.966 24.9266 122.26 26.5546L116.556 39.5516C115.85 41.1796 113.921 41.9268 112.264 41.233Z" fill="#111" />
										<path d="M131.061 72.5649C129.241 75.0202 125.845 76.0077 122.885 74.78L116.148 71.9244C115.958 71.8444 115.741 71.7376 115.551 71.6309L122.912 74.7534C125.873 75.981 129.241 75.0202 131.061 72.5649Z" fill="#111" />
										<path d="M135.352 135.361L128.589 132.533C128.589 132.533 128.562 132.533 128.562 132.506L135.352 135.361Z" fill="#111" />
										<path d="M159.039 113.184L177.265 71.0971C177.971 69.4691 179.9 68.7218 181.529 69.4157L194.758 74.9402C196.415 75.634 197.175 77.5289 196.469 79.1302L178.243 121.217C177.536 122.845 175.608 123.592 173.978 122.899L160.75 117.374C159.12 116.68 158.332 114.785 159.039 113.184Z" fill="#111" />
										<path d="M126.307 130.985C126.334 131.012 126.334 131.012 126.361 131.038C126.361 131.012 126.334 131.012 126.307 130.985C126.334 130.985 126.334 130.985 126.307 130.985Z" fill="#111" />
										<path d="M126.063 130.692C126.144 130.798 126.226 130.878 126.307 130.958C124.487 129.09 123.863 126.261 124.949 123.753L127.828 117.107C127.91 116.921 128.018 116.734 128.127 116.547L125.003 123.779C124.596 124.74 124.406 125.754 124.46 126.742C124.46 126.822 124.46 126.875 124.487 126.929C124.487 127.009 124.487 127.062 124.514 127.142V127.169C124.542 127.275 124.542 127.409 124.569 127.516C124.596 127.622 124.596 127.729 124.623 127.836C124.623 127.889 124.65 127.943 124.677 127.996C124.705 128.103 124.732 128.183 124.759 128.263C124.786 128.37 124.813 128.476 124.868 128.583C124.868 128.637 124.895 128.663 124.922 128.717C124.949 128.823 125.003 128.93 125.058 129.01C125.112 129.117 125.139 129.197 125.194 129.304C125.221 129.357 125.248 129.437 125.302 129.491C125.302 129.517 125.329 129.544 125.329 129.571C125.384 129.651 125.411 129.731 125.465 129.784C125.492 129.864 125.547 129.918 125.601 129.971C125.655 130.051 125.71 130.158 125.791 130.238C125.845 130.291 125.873 130.371 125.927 130.425C125.927 130.531 125.981 130.611 126.063 130.692Z" fill="#111" />
										<path d="M126.932 131.545C126.823 131.438 126.715 131.358 126.606 131.251C126.687 131.332 126.796 131.438 126.932 131.545Z" fill="#111" />
										<path d="M66.2231 129.597L63.2896 136.455C63.3167 136.402 63.3439 136.322 63.371 136.269L66.2231 129.623C66.2231 129.597 66.2231 129.597 66.2231 129.597Z" fill="#111" />
										<path d="M86.0517 159.461L128.969 177.182C130.626 177.876 131.414 179.744 130.707 181.372L125.139 194.395C124.433 196.023 122.531 196.797 120.874 196.103L77.9572 178.383C76.3003 177.689 75.5126 175.821 76.2188 174.193L81.7872 161.169C82.4662 159.541 84.3948 158.767 86.0517 159.461Z" fill="#111" />
										<path d="M82.4393 129.09L75.0782 126.048C72.4434 124.98 69.4826 125.647 67.6084 127.542C69.4826 125.621 72.4705 124.927 75.1053 126.021L81.8689 128.823C82.0862 128.903 82.2763 128.983 82.4393 129.09Z" fill="#111" />
										<path d="M68.9122 68.3481L61.8499 65.4658C61.9313 65.4925 62.0128 65.5192 62.0943 65.5726L68.885 68.3481C68.9122 68.3214 68.9122 68.3214 68.9122 68.3481Z" fill="#111" />
										<path d="M38.5983 87.9372L20.7524 130.184C20.0733 131.812 18.1447 132.586 16.4878 131.919L3.20517 126.501C1.54823 125.834 0.76051 123.939 1.43958 122.311L19.2856 80.0909C19.9646 78.463 21.8932 77.689 23.5501 78.3562L36.8328 83.7739C38.5169 84.4411 39.3046 86.3092 38.5983 87.9372Z" fill="#111" />
										<path d="M181.122 2.05518C170.773 2.05518 162.325 10.3285 162.325 20.4966C162.325 24.2062 163.439 27.649 165.367 30.5313L128.127 116.547L125.004 123.779C124.596 124.74 124.406 125.754 124.46 126.742C124.46 126.795 124.46 126.875 124.487 126.928C124.487 127.008 124.487 127.062 124.515 127.142V127.169C124.542 127.275 124.542 127.409 124.569 127.516C124.596 127.622 124.596 127.729 124.623 127.836C124.623 127.889 124.65 127.943 124.678 127.996C124.705 128.103 124.732 128.183 124.759 128.263C124.786 128.37 124.813 128.476 124.868 128.583C124.868 128.636 124.895 128.663 124.922 128.716C124.949 128.823 125.004 128.93 125.058 129.01C125.112 129.117 125.139 129.197 125.194 129.304C125.221 129.357 125.248 129.437 125.302 129.49C125.302 129.517 125.329 129.544 125.329 129.57C125.384 129.651 125.411 129.731 125.465 129.784C125.492 129.864 125.547 129.917 125.601 129.971C125.655 130.051 125.71 130.158 125.791 130.238C125.846 130.291 125.873 130.371 125.927 130.425C126.009 130.505 126.063 130.585 126.144 130.691C126.199 130.745 126.226 130.798 126.28 130.852C126.307 130.878 126.307 130.878 126.334 130.905C126.362 130.932 126.362 130.932 126.389 130.958C126.416 130.985 126.416 130.985 126.416 130.985C126.606 131.172 126.796 131.359 127.014 131.519C127.122 131.599 127.231 131.679 127.34 131.759C127.747 132.052 128.182 132.293 128.643 132.479L135.434 135.335L135.76 135.469L165.014 147.692C168.437 149.133 172.457 147.532 173.897 144.169L176.776 137.524C178.243 134.161 176.613 130.238 173.19 128.797L149.858 119.055L184.68 38.6444C193.4 37.0432 200 29.5171 200 20.4966C199.919 10.3285 191.498 2.05518 181.122 2.05518ZM188.537 27.3287C186.69 29.2769 184.056 30.4779 181.122 30.4779C175.526 30.4779 170.963 25.9943 170.963 20.4966C170.963 20.3098 170.963 20.0963 170.99 19.9095C171.289 14.6786 175.717 10.5153 181.149 10.5153C186.745 10.5153 191.308 14.9989 191.308 20.4966C191.308 23.1387 190.249 25.5406 188.537 27.3287Z" fill="#111" />
										<path d="M70.6505 69.3621C70.1344 68.9351 69.564 68.5882 68.9393 68.348L61.8769 65.4657L61.7955 65.439L32.4324 53.4828C28.9827 52.0683 24.9898 53.6963 23.5773 57.0857L20.7524 63.7577C19.3128 67.147 20.9697 71.0702 24.4194 72.4579L47.8338 82.0123L13.4999 163.304C5.70419 165.546 0 172.645 0 181.025C0 191.193 8.42048 199.493 18.7967 199.493C29.1457 199.493 37.5934 191.22 37.5934 181.025C37.5934 176.701 36.0722 172.725 33.5189 169.576L69.5097 84.3074C69.6184 84.1206 69.6998 83.9338 69.7813 83.747L72.6063 77.075C73.7471 74.2994 72.8779 71.1769 70.6505 69.3621ZM18.7967 191.006C13.2011 191.006 8.63778 186.523 8.63778 181.025C8.63778 178.997 9.26253 177.128 10.2947 175.554C12.1146 172.832 15.2384 171.043 18.7967 171.043C24.0391 171.043 28.358 174.967 28.9013 179.984C28.9284 180.331 28.9556 180.678 28.9556 181.025C28.9556 186.523 24.3922 191.006 18.7967 191.006Z" fill="#111" />
										<path d="M180.09 163.064C176.694 163.064 173.489 163.971 170.718 165.519L82.4391 129.09L75.078 126.048C72.4432 124.98 69.4824 125.647 67.6082 127.542C67.0378 128.129 66.5489 128.797 66.2229 129.597L63.2893 136.456L50.9302 165.386C49.4906 168.775 51.1204 172.698 54.5429 174.113L61.3064 176.915C64.7561 178.329 68.749 176.728 70.1887 173.365L80.0216 150.387L161.483 184.014C162.705 193.035 170.583 200 180.09 200C190.439 200 198.886 191.727 198.886 181.532C198.886 171.364 190.466 163.064 180.09 163.064ZM180.09 191.513C177.02 191.513 174.277 190.179 172.43 188.071C170.881 186.309 169.931 184.014 169.931 181.532C169.931 176.034 174.494 171.551 180.09 171.551C180.606 171.551 181.095 171.577 181.611 171.657C186.5 172.378 190.276 176.541 190.276 181.532C190.276 187.03 185.712 191.513 180.09 191.513Z" fill="#111" />
									</svg>